<svg width="134" height="55" viewBox="0 0 134 55" fill="none" xmlns="http://www.w3.org/2000/svg">
<path fill-rule="evenodd" clip-rule="evenodd" d="M10.752 54.4516H133.807V8.40771H10.752V54.4516Z" fill="#FFE57B"/>
<path fill-rule="evenodd" clip-rule="evenodd" d="M0 5.17517V39.3439H16.8879V31.6933L7.80472 31.686V5.17517H0Z" fill="#004D82"/>
<path fill-rule="evenodd" clip-rule="evenodd" d="M92.988 18.7835H90.8066V12.9357H92.9514V5.20496H99.8314V12.9357H104.979V18.7536H99.8524V39.3446H92.988V18.7835Z" fill="#004D82"/>
<path fill-rule="evenodd" clip-rule="evenodd" d="M77.3335 39.3437H84.1387V12.8563H77.3335V39.3437Z" fill="#004D82"/>
<path fill-rule="evenodd" clip-rule="evenodd" d="M77.3352 5.72566H84.1466V0H77.3352V5.72566Z" fill="#004D82"/>
<path fill-rule="evenodd" clip-rule="evenodd" d="M31.1539 19.0919C33.8986 18.9189 36.189 20.5365 36.5864 22.9719H26.774C26.9049 21.0582 28.9857 19.227 31.1539 19.0919ZM35.2619 31.3836C34.5553 32.2588 33.6656 32.7708 32.6178 32.9155C31.7 33.0417 30.7815 33.0005 29.8918 32.6729C28.6585 32.22 27.6535 31.4419 27.0396 30.1308C26.8262 29.6738 26.661 29.1974 26.6501 28.6183H43.1516C43.4032 26.5477 43.3775 24.575 42.9365 22.6314C41.4992 16.3104 36.2124 11.8805 29.7578 12.9975C26.8558 13.4981 24.4703 15.0947 22.6636 17.67C20.317 21.0129 19.425 24.795 20.2648 28.9588C21.1429 33.3086 23.5019 36.3951 27.1604 38.1656C30.2774 39.6741 33.4451 39.6539 36.5279 38.0103C39.1705 36.6005 41.0239 34.2889 42.2962 31.3836H35.2619Z" fill="#004D82"/>
<path fill-rule="evenodd" clip-rule="evenodd" d="M59.2742 32.3883C61.7976 32.3794 63.7421 30.807 64.4347 28.1864C64.9154 26.3658 64.744 24.5952 63.9922 22.9016C63.5645 21.9407 62.949 21.1456 62.1061 20.6118C59.9621 19.2586 56.8879 19.5425 55.0874 22.0806C53.9983 23.6149 53.7248 25.3758 53.9741 27.2789C54.3621 30.2376 56.5942 32.3963 59.2742 32.3883ZM64.7097 15.8009V12.8584H71.3965C71.3965 12.8584 71.4066 26.0212 71.3965 33.2602C71.3934 34.8778 71.4448 39.4016 70.8652 41.6161C69.2946 47.6289 65.0751 50.3449 59.3092 50.3449C50.5494 50.3449 47.6349 40.9165 47.6349 40.9165H55.336C55.7286 41.7496 56.2942 42.4209 57.0881 42.835C60.3376 44.5263 64.1885 42.1588 64.5983 38.2005C64.6723 37.4879 64.6934 36.5513 64.7315 35.7384C64.6092 35.9374 64.5056 36.0854 64.4659 36.1444C63.1968 38.0961 61.4384 39.1427 59.3225 39.2875C55.2557 39.5698 51.8862 37.9716 49.4244 34.2971C47.8865 31.9984 47.2438 29.3422 47.2165 26.4879C47.1869 23.221 47.867 20.1944 49.7095 17.5924C51.7538 14.7049 54.4611 13.1763 57.7526 12.9199C59.43 12.7896 61.038 13.059 62.5517 13.9131C63.3697 14.3741 64.0436 15.0269 64.7097 15.8009Z" fill="#004D82"/>
</svg>
