<svg width="27" height="27" viewBox="0 0 27 27" fill="none" xmlns="http://www.w3.org/2000/svg">
<path d="M18 13.5C18 12.2578 17.5605 11.1973 16.6816 10.3184C15.8027 9.43945 14.7422 9 13.5 9C12.2578 9 11.1973 9.43945 10.3184 10.3184C9.43945 11.1973 9 12.2578 9 13.5C9 14.7422 9.43945 15.8027 10.3184 16.6816C11.1973 17.5605 12.2578 18 13.5 18C14.7422 18 15.8027 17.5605 16.6816 16.6816C17.5605 15.8027 18 14.7422 18 13.5ZM20.4258 13.5C20.4258 15.4219 19.752 17.0566 18.4043 18.4043C17.0566 19.752 15.4219 20.4258 13.5 20.4258C11.5781 20.4258 9.94336 19.752 8.5957 18.4043C7.24805 17.0566 6.57422 15.4219 6.57422 13.5C6.57422 11.5781 7.24805 9.94336 8.5957 8.5957C9.94336 7.24805 11.5781 6.57422 13.5 6.57422C15.4219 6.57422 17.0566 7.24805 18.4043 8.5957C19.752 9.94336 20.4258 11.5781 20.4258 13.5ZM22.3242 6.29297C22.3242 6.73828 22.166 7.11914 21.8496 7.43555C21.5332 7.75195 21.1523 7.91016 20.707 7.91016C20.2617 7.91016 19.8809 7.75195 19.5645 7.43555C19.248 7.11914 19.0898 6.73828 19.0898 6.29297C19.0898 5.84766 19.248 5.4668 19.5645 5.15039C19.8809 4.83398 20.2617 4.67578 20.707 4.67578C21.1523 4.67578 21.5332 4.83398 21.8496 5.15039C22.166 5.4668 22.3242 5.84766 22.3242 6.29297ZM13.5 2.42578C13.418 2.42578 12.9697 2.42285 12.1553 2.41699C11.3408 2.41113 10.7227 2.41113 10.3008 2.41699C9.87891 2.42285 9.31348 2.44043 8.60449 2.46973C7.89551 2.49902 7.29199 2.55762 6.79395 2.64551C6.2959 2.7334 5.87695 2.8418 5.53711 2.9707C4.95117 3.20508 4.43555 3.54492 3.99023 3.99023C3.54492 4.43555 3.20508 4.95117 2.9707 5.53711C2.8418 5.87695 2.7334 6.2959 2.64551 6.79395C2.55762 7.29199 2.49902 7.89551 2.46973 8.60449C2.44043 9.31348 2.42285 9.87891 2.41699 10.3008C2.41113 10.7227 2.41113 11.3408 2.41699 12.1553C2.42285 12.9697 2.42578 13.418 2.42578 13.5C2.42578 13.582 2.42285 14.0303 2.41699 14.8447C2.41113 15.6592 2.41113 16.2773 2.41699 16.6992C2.42285 17.1211 2.44043 17.6865 2.46973 18.3955C2.49902 19.1045 2.55762 19.708 2.64551 20.2061C2.7334 20.7041 2.8418 21.123 2.9707 21.4629C3.20508 22.0488 3.54492 22.5645 3.99023 23.0098C4.43555 23.4551 4.95117 23.7949 5.53711 24.0293C5.87695 24.1582 6.2959 24.2666 6.79395 24.3545C7.29199 24.4424 7.89551 24.501 8.60449 24.5303C9.31348 24.5596 9.87891 24.5771 10.3008 24.583C10.7227 24.5889 11.3408 24.5889 12.1553 24.583C12.9697 24.5771 13.418 24.5742 13.5 24.5742C13.582 24.5742 14.0303 24.5771 14.8447 24.583C15.6592 24.5889 16.2773 24.5889 16.6992 24.583C17.1211 24.5771 17.6865 24.5596 18.3955 24.5303C19.1045 24.501 19.708 24.4424 20.2061 24.3545C20.7041 24.2666 21.123 24.1582 21.4629 24.0293C22.0488 23.7949 22.5645 23.4551 23.0098 23.0098C23.4551 22.5645 23.7949 22.0488 24.0293 21.4629C24.1582 21.123 24.2666 20.7041 24.3545 20.2061C24.4424 19.708 24.501 19.1045 24.5303 18.3955C24.5596 17.6865 24.5771 17.1211 24.583 16.6992C24.5889 16.2773 24.5889 15.6592 24.583 14.8447C24.5771 14.0303 24.5742 13.582 24.5742 13.5C24.5742 13.418 24.5771 12.9697 24.583 12.1553C24.5889 11.3408 24.5889 10.7227 24.583 10.3008C24.5771 9.87891 24.5596 9.31348 24.5303 8.60449C24.501 7.89551 24.4424 7.29199 24.3545 6.79395C24.2666 6.2959 24.1582 5.87695 24.0293 5.53711C23.7949 4.95117 23.4551 4.43555 23.0098 3.99023C22.5645 3.54492 22.0488 3.20508 21.4629 2.9707C21.123 2.8418 20.7041 2.7334 20.2061 2.64551C19.708 2.55762 19.1045 2.49902 18.3955 2.46973C17.6865 2.44043 17.1211 2.42285 16.6992 2.41699C16.2773 2.41113 15.6592 2.41113 14.8447 2.41699C14.0303 2.42285 13.582 2.42578 13.5 2.42578ZM27 13.5C27 16.1836 26.9707 18.041 26.9121 19.0723C26.7949 21.5098 26.0684 23.3965 24.7324 24.7324C23.3965 26.0684 21.5098 26.7949 19.0723 26.9121C18.041 26.9707 16.1836 27 13.5 27C10.8164 27 8.95898 26.9707 7.92773 26.9121C5.49023 26.7949 3.60352 26.0684 2.26758 24.7324C0.931641 23.3965 0.205078 21.5098 0.0878906 19.0723C0.0292969 18.041 0 16.1836 0 13.5C0 10.8164 0.0292969 8.95898 0.0878906 7.92773C0.205078 5.49023 0.931641 3.60352 2.26758 2.26758C3.60352 0.931641 5.49023 0.205078 7.92773 0.0878906C8.95898 0.0292969 10.8164 0 13.5 0C16.1836 0 18.041 0.0292969 19.0723 0.0878906C21.5098 0.205078 23.3965 0.931641 24.7324 2.26758C26.0684 3.60352 26.7949 5.49023 26.9121 7.92773C26.9707 8.95898 27 10.8164 27 13.5Z" fill="#2F2E41"/>
</svg>
